<svg xmlns="http://www.w3.org/2000/svg" version="1.1" xmlns:xlink="http://www.w3.org/1999/xlink" xmlns:svgjs="http://svgjs.dev/svgjs" viewBox="0 0 800 800"><defs><linearGradient x1="50%" y1="0%" x2="50%" y2="100%" id="ccchaos-grad"><stop stop-color="hsl(180, 93%, 39%)" stop-opacity="1" offset="0%"></stop><stop stop-color="hsl(180, 86%, 57%)" stop-opacity="1" offset="100%"></stop></linearGradient></defs><g stroke-width="4" stroke="url(#ccchaos-grad)" fill="none" stroke-linecap="round"><path d="M398.63 107.2C408.47 105.2 418.51 103.95 428.74 103.47 438.99 103.3 449.45 103.94 460.1 105.38 470.79 107.17 481.67 109.75 492.7 113.08 503.76 116.73 514.93 121.08 526.13 126.07 537.26 131.3 548.32 137.1 559.16 143.4 569.74 149.83 579.92 156.68 589.5 163.88 598.54 171.12 606.74 178.64 613.91 186.39 620.26 194.1 625.38 201.99 629.14 210.03 632.01 217.97 633.52 226.04 633.73 234.23 633.35 242.28 632.01 250.45 629.95 258.72 628.09 266.86 626.17 275.13 624.58 283.53 624.22 291.81 624.89 300.25 626.9 308.84 630.87 317.34 636.48 326.03 643.72 334.91 652.72 343.73 662.88 352.77 673.76 362.02 685.08 371.24 695.97 380.69 705.72 390.38 714.06 400.06 720.07 409.99 723.22 420.16 723.74 430.33 721.1 440.51 715.6 450.67 708.02 460.83 698.46 470.96 687.57 481.02 676.27 491.07 664.86 501.03 653.93 510.85 644.18 520.62 635.69 530.22 628.69 539.58 623.57 548.84 619.97 557.8 617.74 566.39 617.09 574.82 617.28 582.82 617.97 590.3 619.99 600.87 621.8 618.42 620.19 625.2 616.43 630.76 601.63 637.76 590.94 639.35 582.88 640.11 574.02 640.36 564.55 640.17 554.71 640.15 544.45 639.9 533.92 639.53 523.23 639.64 512.41 639.84 501.57 640.24 490.69 641.39 479.85 642.91 469.14 644.85 458.43 647.66 447.86 650.94 437.47 654.66 427.09 659.17 416.87 663.98 406.84 668.98 396.8 674.45 387.16 679.67 377.91 684.49 368.62 689.29 359.68 693.37 351.07 696.6 342.4 699.39 334.01 701.11 325.89 701.7 317.65 701.62 309.62 700.32 301.77 697.84 293.75 694.63 285.84 690.28 278.03 684.89 269.98 678.88 261.96 671.97 253.97 664.27 245.71 656.16 237.46 647.43 229.21 638.21 220.75 628.78 212.34 619.02 204.02 609.03 195.62 599.01 187.42 588.86 179.51 578.66 171.71 568.54 164.35 558.43 157.53 548.36 151.03 538.42 145.19 528.53 140.1 518.72 135.45 509.03 131.59 499.4 128.55 489.82 125.91 480.35 124.01 470.89 122.81 461.45 121.79 452.08 121.3 442.7 121.27 433.29 121.09 423.93 121.15 414.51 121.4 405.06 121.23 395.63 121.1 386.14 121 376.61 120.41 367.08 119.89 357.74 119.51 348.61 118.84 339.48 118.48 330.56 118.53 321.89 118.61 313.22 119.3 304.82 120.66 296.69 122.35 288.59 124.84 280.79 128.14 273.32 131.89 265.88 136.47 258.78 141.8 252.04 147.52 245.33 153.9 238.98 160.84 233.01 167.97 227.05 175.5 221.44 183.33 216.21 191.13 210.94 199.09 206 207.13 201.4 214.97 196.69 222.82 192.27 230.67 188.11 238.22 183.78 245.77 179.66 253.32 175.73 260.58 171.55 267.89 167.52 275.28 163.62 282.44 159.43 289.76 155.33 297.25 151.34 304.59 147.05 312.17 142.86 320.01 138.81 327.76 134.51 335.83 130.39 344.22 126.51 352.55 122.48 361.25 118.77 370.31 115.46 379.35 112.17 388.78 109.38 398.62 107.2" stroke-dasharray="5 7" transform="rotate(0, 400, 400)" opacity="0.31"></path><path d="M405.27 118C414.88 116.02 424.68 114.76 434.63 114.23 444.61 113.99 454.76 114.52 465.05 115.82 475.36 117.45 485.79 119.83 496.3 122.93 506.79 126.35 517.29 130.44 527.71 135.16 538 140.11 548.09 145.63 557.84 151.63 567.28 157.79 576.21 164.37 584.45 171.31 592.15 178.31 598.96 185.6 604.74 193.14 609.8 200.66 613.7 208.38 616.37 216.26 618.35 224.06 619.17 232.01 618.94 240.08 618.37 248.04 617.11 256.12 615.4 264.3 614.08 272.37 612.91 280.55 612.23 288.85 612.8 297.06 614.42 305.39 617.34 313.87 622.03 322.26 628.19 330.82 635.75 339.54 644.81 348.21 654.79 357.06 665.27 366.09 676.04 375.1 686.28 384.31 695.37 393.72 703.13 403.12 708.7 412.74 711.64 422.55 712.18 432.36 709.82 442.15 704.8 451.88 697.85 461.61 689.01 471.28 678.84 480.84 668.17 490.39 657.23 499.81 646.56 509.05 636.82 518.25 628.09 527.24 620.6 535.95 614.77 544.57 610.31 552.87 607.13 560.78 605.46 568.53 604.7 575.84 604.55 582.63 605.6 592.22 607.01 607.98 606 614 603.39 618.96 591.88 625.22 583.09 626.71 576.36 627.49 568.8 627.83 560.55 627.8 551.93 627.98 542.79 627.99 533.27 627.9 523.55 628.29 513.59 628.78 503.5 629.46 493.33 630.84 483.11 632.55 472.92 634.62 462.72 637.5 452.58 640.78 442.54 644.43 432.52 648.8 422.6 653.42 412.82 658.17 403.03 663.37 393.59 668.31 384.49 672.87 375.36 677.44 366.53 681.34 357.98 684.45 349.37 687.2 341 688.97 332.84 689.7 324.57 689.84 316.47 688.86 308.5 686.79 300.37 684.05 292.32 680.25 284.33 675.46 276.14 670.1 267.97 663.85 259.82 656.83 251.46 649.39 243.11 641.32 234.8 632.74 226.35 623.93 217.98 614.75 209.76 605.28 201.53 595.75 193.56 586.03 185.92 576.22 178.45 566.45 171.46 556.63 165.04 546.82 158.96 537.11 153.56 527.42 148.9 517.78 144.68 508.25 141.22 498.76 138.55 489.32 136.24 479.98 134.63 470.66 133.68 461.37 132.87 452.15 132.54 442.94 132.63 433.74 132.55 424.57 132.68 415.39 132.96 406.2 132.81 397.03 132.69 387.84 132.58 378.65 131.97 369.47 131.42 360.49 130.98 351.74 130.23 342.99 129.77 334.48 129.68 326.22 129.6 317.97 130.08 309.98 131.2 302.28 132.61 294.59 134.78 287.2 137.74 280.14 141.13 273.09 145.32 266.37 150.26 259.99 155.61 253.62 161.63 247.59 168.23 241.91 175.07 236.22 182.36 230.86 189.99 225.83 197.66 220.75 205.53 215.97 213.55 211.48 221.42 206.88 229.36 202.53 237.31 198.42 245.02 194.12 252.73 190.01 260.44 186.08 267.89 181.9 275.37 177.85 282.91 173.93 290.22 169.72 297.64 165.61 305.2 161.61 312.59 157.33 320.18 153.16 328 149.13 335.7 144.87 343.68 140.8 351.95 136.97 360.15 133.01 368.69 129.37 377.57 126.12 386.42 122.89 395.65 120.16 405.26 118" stroke-dasharray="5 7" transform="rotate(4.04, 400, 400)" opacity="0.16"></path><path d="M411.45 128.8C420.81 126.84 430.31 125.57 439.93 125 449.56 124.69 459.3 125.13 469.12 126.28 478.94 127.75 488.81 129.94 498.66 132.82 508.45 136 518.15 139.83 527.66 144.26 537.01 148.94 546.04 154.16 554.64 159.87 562.91 165.73 570.59 172.02 577.53 178.68 583.96 185.41 589.52 192.45 594.08 199.74 598.03 207.04 600.94 214.55 602.78 222.24 604.11 229.87 604.51 237.66 604.08 245.57 603.55 253.41 602.55 261.36 601.35 269.41 600.68 277.38 600.32 285.45 600.55 293.63 602.03 301.73 604.53 309.95 608.24 318.28 613.56 326.55 620.15 334.96 627.92 343.5 636.95 352 646.68 360.65 656.73 369.46 666.93 378.25 676.52 387.2 684.97 396.32 692.17 405.43 697.32 414.71 700.06 424.15 700.62 433.6 698.51 442.98 693.95 452.27 687.61 461.56 679.47 470.75 670.01 479.81 659.97 488.84 649.55 497.72 639.22 506.39 629.59 515.01 620.74 523.39 612.9 531.48 606.49 539.47 601.29 547.12 597.25 554.38 594.63 561.49 592.92 568.15 591.9 574.31 591.84 582.99 592.26 597.16 591.47 602.54 589.6 606.99 580.67 612.71 573.52 614.16 567.98 614.99 561.62 615.45 554.55 615.61 547.11 616 539.09 616.25 530.62 616.45 521.92 617.1 512.9 617.86 503.63 618.8 494.27 620.38 484.76 622.25 475.18 624.45 465.57 627.37 455.94 630.63 446.33 634.21 436.73 638.42 427.17 642.85 417.67 647.37 408.17 652.29 398.95 656.97 390.01 661.27 381.04 665.6 372.31 669.32 363.81 672.31 355.25 675 346.88 676.8 338.68 677.65 330.38 677.98 322.19 677.29 314.11 675.58 305.89 673.28 297.72 669.99 289.59 665.76 281.3 661 273.03 655.39 264.79 649.03 256.4 642.26 248.05 634.86 239.77 626.94 231.41 618.76 223.18 610.17 215.16 601.28 207.18 592.27 199.51 583.05 192.22 573.69 185.16 564.32 178.59 554.87 172.62 545.39 167.01 535.97 162.07 526.54 157.86 517.15 154.07 507.83 151.01 498.54 148.7 489.31 146.72 480.14 145.38 471 144.66 461.92 144.04 452.88 143.86 443.87 144.04 434.89 144.04 425.94 144.23 417 144.53 408.09 144.41 399.19 144.29 390.3 144.16 381.44 143.54 372.58 142.97 363.95 142.47 355.57 141.67 347.19 141.12 339.05 140.91 331.18 140.68 323.31 140.97 315.71 141.85 308.4 142.99 301.09 144.86 294.07 147.46 287.37 150.48 280.67 154.27 274.29 158.8 268.23 163.74 262.16 169.36 256.41 175.57 250.98 182.07 245.52 189.04 240.36 196.4 235.51 203.86 230.58 211.58 225.92 219.48 221.53 227.31 217.01 235.25 212.72 243.24 208.63 251.04 204.36 258.87 200.26 266.71 196.31 274.33 192.13 281.97 188.06 289.64 184.12 297.11 179.91 304.67 175.79 312.31 171.79 319.81 167.52 327.45 163.38 335.27 159.38 342.99 155.18 350.93 151.16 359.12 147.39 367.24 143.51 375.65 139.95 384.37 136.77 393.06 133.61 402.08 130.93 411.44 128.8" stroke-dasharray="8 6" transform="rotate(8.08, 400, 400)" opacity="0.91"></path><path d="M416.62 139.61C425.7 137.67 434.86 136.4 444.07 135.78 453.29 135.42 462.55 135.75 471.8 136.77 481.04 138.09 490.24 140.09 499.33 142.75 508.34 145.69 517.16 149.26 525.7 153.41 534.05 157.79 542.01 162.71 549.46 168.1 556.59 173.67 563.08 179.65 568.83 186 574.13 192.44 578.59 199.2 582.13 206.22 585.2 213.26 587.35 220.54 588.61 227.99 589.55 235.43 589.77 243.02 589.38 250.74 589.07 258.41 588.5 266.2 587.91 274.09 587.98 281.92 588.45 289.85 589.57 297.87 591.89 305.84 595.2 313.9 599.6 322.07 605.41 330.19 612.32 338.43 620.21 346.77 629.12 355.08 638.55 363.52 648.13 372.08 657.74 380.63 666.7 389.31 674.53 398.12 681.18 406.92 685.94 415.86 688.48 424.92 689.05 433.98 687.18 442.94 683.06 451.79 677.3 460.63 669.83 469.34 661.07 477.88 651.69 486.4 641.83 494.74 631.9 502.84 622.46 510.89 613.6 518.68 605.55 526.16 598.68 533.55 592.86 540.59 588.08 547.23 583.28 556.77 578.83 573.25 578.04 580.04 576.59 590.46 568.28 600.25 562.46 601.73 557.93 602.64 552.63 603.24 546.61 603.6 540.28 604.2 533.33 604.7 525.87 605.16 518.2 606.07 510.12 607.08 501.72 608.24 493.21 610.01 484.46 612.02 475.55 614.31 466.6 617.26 457.54 620.5 448.43 623.98 439.3 628.05 430.14 632.28 420.97 636.57 411.8 641.22 402.83 645.63 394.07 649.69 385.28 653.78 376.68 657.31 368.24 660.18 359.76 662.8 351.41 664.6 343.18 665.54 334.87 666.04 326.64 665.59 318.48 664.21 310.21 662.32 301.98 659.49 293.78 655.79 285.47 651.6 277.18 646.6 268.94 640.88 260.61 634.76 252.34 628.02 244.19 620.74 236.03 613.21 228.04 605.25 220.3 596.95 212.67 588.51 205.38 579.82 198.51 570.95 191.91 562.05 185.82 553.02 180.34 543.94 175.22 534.87 170.76 525.78 167.01 516.69 163.65 507.65 160.99 498.62 159.03 489.63 157.35 480.7 156.28 471.8 155.76 462.94 155.31 454.13 155.25 445.35 155.52 436.62 155.58 427.91 155.8 419.24 156.11 410.6 156 401.99 155.88 393.4 155.74 384.86 155.12 376.33 154.52 368.04 153.99 360.01 153.14 351.97 152.52 344.19 152.21 336.68 151.84 329.17 151.96 321.92 152.63 314.97 153.51 308 155.07 301.33 157.33 294.95 159.97 288.57 163.36 282.48 167.46 276.69 171.97 270.88 177.14 265.37 182.93 260.16 189.02 254.89 195.62 249.9 202.64 245.19 209.8 240.39 217.28 235.83 224.99 231.51 232.7 227.06 240.55 222.8 248.49 218.73 256.31 214.48 264.19 210.37 272.08 206.41 279.82 202.22 287.57 198.15 295.35 194.18 302.96 189.97 310.63 185.86 318.37 181.86 325.96 177.63 333.67 173.52 341.51 169.57 349.26 165.43 357.18 161.48 365.3 157.78 373.36 153.99 381.66 150.51 390.21 147.4 398.73 144.32 407.53 141.7 416.61 139.61" stroke-dasharray="8 7" transform="rotate(12.12, 400, 400)" opacity="0.28"></path><path d="M420.33 150.41C429.09 148.51 437.86 147.23 446.61 146.58 455.35 146.16 464.07 146.4 472.69 147.29 481.29 148.46 489.76 150.27 498.04 152.71 506.21 155.42 514.13 158.72 521.68 162.59 529.05 166.68 535.96 171.29 542.33 176.36 548.41 181.61 553.84 187.27 558.55 193.3 562.89 199.43 566.45 205.88 569.21 212.6 571.62 219.37 573.27 226.37 574.2 233.56 574.97 240.75 575.22 248.11 575.06 255.61 575.12 263.07 575.11 270.66 575.21 278.35 576.03 286 577.33 293.75 579.29 301.59 582.38 309.38 586.39 317.27 591.36 325.24 597.57 333.18 604.69 341.21 612.59 349.34 621.31 357.43 630.38 365.64 639.46 373.93 648.47 382.22 656.8 390.61 664.04 399.09 670.16 407.58 674.55 416.16 676.9 424.82 677.47 433.49 675.83 442.03 672.12 450.42 666.91 458.81 660.09 467.03 652.01 475.07 643.3 483.08 634.02 490.88 624.55 498.42 615.4 505.92 606.63 513.14 598.48 520.04 591.3 526.86 584.99 533.32 579.59 539.39 573.62 548.11 566.69 563.07 564.87 569.21 562.48 578.71 555.08 587.9 550.25 589.45 544.31 590.85 528.62 592.98 519.11 594.06 512.4 595.2 505.23 596.43 497.68 597.8 490.02 599.72 482.05 601.86 473.84 604.22 465.58 607.18 457.14 610.37 448.55 613.76 439.95 617.67 431.24 621.7 422.44 625.76 413.63 630.15 404.95 634.31 396.4 638.13 387.84 641.99 379.4 645.32 371.06 648.07 362.69 650.6 354.41 652.39 346.21 653.4 337.94 654.02 329.72 653.79 321.56 652.71 313.32 651.17 305.1 648.77 296.93 645.56 288.68 641.9 280.47 637.48 272.34 632.36 264.17 626.88 256.1 620.78 248.18 614.15 240.31 607.26 232.66 599.93 225.29 592.24 218.09 584.4 211.26 576.28 204.88 567.95 198.78 559.55 193.21 551 188.24 542.35 183.63 533.71 179.67 525 176.38 516.27 173.45 507.56 171.17 498.86 169.54 490.17 168.15 481.53 167.31 472.9 166.98 464.32 166.67 455.78 166.71 447.27 167.04 438.81 167.15 430.37 167.39 421.97 167.71 413.64 167.6 405.31 167.48 397.03 167.33 388.82 166.7 380.6 166.09 372.64 165.53 364.94 164.65 357.24 163.98 349.8 163.57 342.62 163.1 335.44 163.06 328.52 163.53 321.88 164.17 315.23 165.44 308.86 167.37 302.77 169.64 296.66 172.61 290.83 176.28 285.29 180.33 279.71 185.04 274.4 190.36 269.36 196 264.26 202.16 259.42 208.78 254.81 215.58 250.12 222.74 245.64 230.16 241.37 237.64 236.96 245.31 232.73 253.11 228.67 260.86 224.43 268.69 220.33 276.57 216.35 284.34 212.17 292.14 208.09 299.96 204.12 307.66 199.92 315.4 195.82 323.18 191.84 330.85 187.65 338.6 183.59 346.45 179.69 354.21 175.62 362.11 171.76 370.15 168.14 378.14 164.44 386.31 161.05 394.67 158.02 403.01 155.02 411.56 152.46 420.32 150.41" stroke-dasharray="0 7" transform="rotate(16.16, 400, 400)" opacity="0.51"></path><path d="M422.26 161.21C430.66 159.35 438.99 158.07 447.23 157.39 455.46 156.92 463.58 157.07 471.55 157.84 479.47 158.86 487.18 160.49 494.64 162.72 501.99 165.19 509.01 168.24 515.62 171.82 522.06 175.62 528.01 179.91 533.42 184.66 538.56 189.58 543.09 194.9 546.95 200.59 550.53 206.4 553.42 212.52 555.62 218.92 557.61 225.37 558.99 232.07 559.81 238.97 560.63 245.88 561.08 252.97 561.31 260.21 561.87 267.43 562.48 274.78 563.31 282.24 564.88 289.67 566.97 297.2 569.7 304.82 573.48 312.4 578.07 320.07 583.5 327.82 589.98 335.54 597.2 343.34 605.03 351.22 613.49 359.08 622.15 367.02 630.71 375.03 639.13 383.03 646.84 391.11 653.49 399.25 659.12 407.39 663.15 415.6 665.32 423.86 665.9 432.12 664.46 440.23 661.13 448.17 656.44 456.1 650.25 463.84 642.85 471.38 634.8 478.89 626.12 486.17 617.15 493.18 608.36 500.15 599.79 506.83 591.65 513.18 584.29 519.47 577.63 525.4 571.73 530.94 564.75 538.91 555.5 552.54 552.6 558.13 545.17 571.29 532.24 578.97 525.97 580.2 521.39 581.22 516.23 582.19 510.54 583.14 504.68 584.48 498.35 585.92 491.6 587.47 484.75 589.52 477.53 591.75 470.02 594.17 462.45 597.11 454.63 600.25 446.6 603.54 438.55 607.29 430.32 611.12 421.93 614.96 413.54 619.09 405.19 622.99 396.91 626.57 388.62 630.2 380.39 633.36 372.21 635.96 364.02 638.39 355.87 640.16 347.76 641.21 339.61 641.94 331.5 641.9 323.41 641.07 315.29 639.85 307.19 637.84 299.15 635.07 291.07 631.91 283.05 628.03 275.14 623.49 267.24 618.6 259.47 613.13 251.9 607.13 244.42 600.88 237.19 594.18 230.29 587.11 223.58 579.88 217.26 572.35 211.42 564.58 205.86 556.72 200.84 548.69 196.41 540.53 192.31 532.35 188.83 524.07 186 515.75 183.48 507.44 181.56 499.1 180.24 490.77 179.12 482.46 178.49 474.16 178.31 465.9 178.12 457.66 178.25 449.45 178.62 441.3 178.76 433.16 179.01 425.06 179.31 417.03 179.21 409.01 179.07 401.05 178.91 393.15 178.28 385.26 177.66 377.62 177.09 370.25 176.19 362.86 175.48 355.74 175 348.87 174.44 342 174.27 335.38 174.55 329.04 174.98 322.67 175.98 316.57 177.58 310.74 179.49 304.88 182.06 299.27 185.29 293.94 188.88 288.55 193.11 283.42 197.93 278.53 203.09 273.57 208.77 268.84 214.92 264.33 221.29 259.72 228.04 255.3 235.1 251.07 242.27 246.71 249.66 242.5 257.23 238.44 264.8 234.22 272.48 230.11 280.24 226.13 287.94 221.95 295.7 217.88 303.48 213.91 311.18 209.74 318.92 205.67 326.69 201.72 334.38 197.58 342.13 193.58 349.93 189.74 357.67 185.76 365.5 181.99 373.43 178.45 381.32 174.86 389.33 171.56 397.46 168.62 405.59 165.71 413.85 163.22 422.25 161.22" stroke-dasharray="4 5" transform="rotate(20.200000000000003, 400, 400)" opacity="0.62"></path><path d="M422.23 172.02C430.23 170.19 438.1 168.92 445.8 168.21 453.49 167.7 461 167.77 468.29 168.42 475.53 169.3 482.51 170.76 489.17 172.77 495.74 175.02 501.93 177.81 507.69 181.1 513.3 184.61 518.42 188.59 523 193 527.39 197.59 531.2 202.57 534.42 207.91 537.44 213.37 539.88 219.14 541.76 225.2 543.54 231.32 544.85 237.69 545.76 244.26 546.78 250.87 547.59 257.66 548.31 264.59 549.44 271.53 550.71 278.61 552.28 285.79 554.57 292.96 557.37 300.24 560.79 307.59 565.14 314.93 570.2 322.35 575.96 329.84 582.6 337.31 589.83 344.85 597.5 352.45 605.64 360.03 613.85 367.69 621.88 375.38 629.69 383.08 636.8 390.83 642.9 398.62 648.06 406.4 651.74 414.23 653.73 422.08 654.31 429.92 653.06 437.6 650.1 445.08 645.91 452.56 640.3 459.83 633.56 466.87 626.16 473.9 618.11 480.68 609.68 487.19 601.32 493.65 593.02 499.83 585 505.68 577.59 511.47 570.71 516.91 564.45 521.99 556.66 529.29 545.32 541.76 541.36 546.89 536.03 555.08 527.82 563.67 523.97 565.5 519.51 567.32 507.78 570.64 500.52 572.39 495.38 573.93 489.77 575.54 483.74 577.24 477.61 579.4 471.1 581.7 464.25 584.15 457.35 587.07 450.14 590.13 442.67 593.31 435.18 596.9 427.45 600.54 419.5 604.16 411.55 608.04 403.58 611.69 395.62 615.04 387.66 618.44 379.7 621.41 371.76 623.87 363.81 626.2 355.86 627.92 347.94 629 340 629.81 332.08 629.92 324.19 629.32 316.29 628.38 308.42 626.71 300.61 624.35 292.81 621.64 285.1 618.26 277.52 614.26 269.99 609.95 262.63 605.06 255.5 599.68 248.49 594.05 241.77 587.98 235.4 581.53 229.24 574.91 223.5 567.97 218.22 560.79 213.23 553.5 208.77 546.01 204.87 538.38 201.29 530.69 198.29 522.9 195.88 515.03 193.75 507.16 192.17 499.23 191.13 491.3 190.24 483.37 189.79 475.43 189.74 467.52 189.66 459.63 189.84 451.76 190.24 443.93 190.39 436.12 190.63 428.35 190.92 420.64 190.81 412.94 190.67 405.3 190.49 397.73 189.87 390.16 189.25 382.84 188.66 375.77 187.77 368.7 187.03 361.88 186.5 355.3 185.86 348.72 185.58 342.38 185.7 336.3 186.31 327.27 190.64 310.39 194.53 302.53 197.66 297.32 201.4 292.34 205.72 287.57 210.35 282.74 215.52 278.1 221.15 273.67 227.04 269.13 233.32 264.77 239.93 260.57 246.7 256.24 253.73 252.05 260.95 248.01 268.24 243.8 275.67 239.7 283.21 235.72 290.74 231.56 298.34 227.5 305.99 223.55 313.6 219.42 321.25 215.39 328.92 211.49 336.54 207.42 344.21 203.49 351.9 199.73 359.55 195.85 367.26 192.17 375.02 188.73 382.75 185.25 390.56 182.05 398.43 179.2 406.29 176.39 414.23 173.98 422.22 172.02" stroke-dasharray="2 11" transform="rotate(24.24, 400, 400)" opacity="0.54"></path><path d="M420.26 182.82C427.82 181.04 435.19 179.78 442.35 179.05 449.49 178.5 456.4 178.49 463.04 179.03 469.63 179.78 475.91 181.07 481.85 182.88 490.43 186.17 505.31 195.5 511.46 201.42 516.91 207.98 525.1 223.08 527.96 231.48 529.72 237.25 531.14 243.26 532.3 249.48 533.66 255.75 534.92 262.2 536.2 268.81 537.93 275.44 539.87 282.2 542.13 289.07 545.08 295.95 548.52 302.93 552.51 309.99 557.32 317.04 562.73 324.18 568.71 331.37 575.41 338.55 582.54 345.8 589.97 353.09 597.74 360.37 605.48 367.71 612.95 375.07 620.18 382.44 626.7 389.84 632.27 397.25 636.96 404.67 640.32 412.1 642.15 419.53 642.73 426.95 641.65 434.19 639.03 441.22 635.29 448.25 630.26 455.06 624.15 461.64 617.4 468.19 609.98 474.5 602.12 480.52 594.23 486.52 586.29 492.22 578.49 497.61 571.14 502.95 564.17 507.96 557.68 512.62 551.9 517.21 546.65 521.45 541.93 525.31 531.77 535.36 520.91 546.77 517.73 549.41 510.57 553.89 495.97 559.79 489.48 561.83 482.41 564.41 466.03 570.53 456.84 574.17 450.55 577.04 443.92 580.03 437 583.09 430.06 586.51 422.83 589.95 415.36 593.35 407.88 596.99 400.33 600.4 392.74 603.53 385.16 606.7 377.54 609.48 369.91 611.8 362.28 614.01 354.63 615.68 346.99 616.77 339.35 617.63 331.72 617.86 324.13 617.45 316.55 616.75 309.02 615.39 301.57 613.4 294.16 611.1 286.86 608.18 279.71 604.68 272.65 600.9 265.79 596.58 259.18 591.78 252.72 586.75 246.57 581.28 240.78 575.44 235.21 569.44 230.06 563.11 225.38 556.51 220.97 549.81 217.06 542.88 213.69 535.79 210.6 528.64 208.05 521.35 206.05 513.97 204.28 506.57 203 499.1 202.21 491.59 201.52 484.09 201.23 476.56 201.28 469.04 201.27 461.52 201.49 454.02 201.89 446.55 202.05 439.09 202.28 431.67 202.54 424.3 202.41 416.93 202.26 409.62 202.07 402.38 201.46 395.14 200.85 388.14 200.26 381.38 199.38 374.61 198.62 368.08 198.06 361.78 197.37 355.47 197 349.4 196.98 343.56 197.3 334.88 200.75 318.61 204.04 311 206.71 305.94 209.97 301.09 213.77 296.43 217.88 291.7 222.5 287.16 227.59 282.79 232.94 278.32 238.7 274 244.81 269.83 251.09 265.54 257.66 261.38 264.47 257.34 271.37 253.16 278.45 249.09 285.66 245.12 292.91 240.99 300.25 236.96 307.66 233.05 315.06 228.97 322.52 224.99 330 221.15 337.45 217.16 344.94 213.32 352.45 209.65 359.93 205.88 367.44 202.31 374.96 198.98 382.48 195.61 390.02 192.53 397.57 189.77 405.12 187.06 412.68 184.72 420.25 182.82" stroke-dasharray="14 16" transform="rotate(28.28, 400, 400)" opacity="0.58"></path><path d="M416.5 193.62C423.61 191.89 430.48 190.65 437.1 189.9 443.7 189.32 450.03 189.25 456.06 189.67 464.88 190.86 480.67 195.99 487.52 199.88 493.82 204.48 504.12 215.95 508.14 222.7 511.71 229.96 517.32 246 519.68 254.67 521.45 260.58 523.23 266.67 525.09 272.92 527.41 279.19 529.98 285.61 532.87 292.14 536.4 298.69 540.37 305.34 544.83 312.07 549.97 318.8 555.61 325.61 561.69 332.47 568.34 339.34 575.3 346.26 582.43 353.21 589.78 360.17 597.01 367.16 603.93 374.17 610.57 381.18 616.53 388.21 621.58 395.24 625.85 402.27 628.9 409.29 630.57 416.3 631.14 423.3 630.22 430.1 627.91 436.7 624.61 443.28 620.11 449.65 614.61 455.77 608.49 461.88 601.7 467.73 594.44 473.32 587.06 478.88 579.54 484.15 572.05 489.12 564.86 494.05 557.93 498.67 551.35 502.96 545.33 507.21 539.74 511.12 534.59 514.7 528 519.83 517.41 528.39 513.06 531.87 505.7 537.71 493.93 544.78 489.12 546.82 483.93 549.15 471.53 554.22 464.31 557.1 459.33 559.39 453.96 561.76 448.24 564.22 442.49 567.04 436.4 569.93 430 572.86 423.58 576.11 416.86 579.36 409.87 582.55 402.87 585.95 395.77 589.12 388.61 592.03 381.45 594.99 374.23 597.57 366.98 599.75 359.74 601.84 352.48 603.44 345.21 604.52 337.97 605.42 330.73 605.74 323.54 605.49 316.39 605 309.29 603.91 302.29 602.24 295.37 600.31 288.57 597.81 281.94 594.77 275.44 591.48 269.14 587.69 263.12 583.44 257.27 578.98 251.73 574.1 246.55 568.85 241.6 563.44 237.05 557.71 232.96 551.7 229.12 545.58 225.76 539.24 222.89 532.7 220.27 526.1 218.14 519.34 216.51 512.48 215.06 505.58 214.05 498.59 213.47 491.54 212.96 484.49 212.78 477.39 212.91 470.29 212.95 463.19 213.19 456.08 213.58 448.99 213.73 441.91 213.93 434.85 214.16 427.84 214.02 420.83 213.85 413.86 213.65 406.96 213.05 400.05 212.45 393.36 211.88 386.9 211.01 380.43 210.26 374.18 209.67 368.16 208.73 359.2 208.46 342.33 209.4 334.4 211.1 326.62 217.45 311.94 222.14 305.02 225.72 300.4 229.79 295.93 234.32 291.62 239.1 287.21 244.3 282.95 249.85 278.82 255.59 274.57 261.64 270.44 267.94 266.43 274.37 262.29 281.01 258.24 287.8 254.31 294.65 250.23 301.63 246.25 308.69 242.38 315.78 238.37 322.93 234.47 330.12 230.7 337.31 226.82 344.53 223.08 351.75 219.51 358.98 215.86 366.21 212.41 373.43 209.19 380.65 205.95 387.86 202.98 395.04 200.33 402.23 197.72 409.39 195.47 416.49 193.63" stroke-dasharray="0 11" transform="rotate(32.32, 400, 400)" opacity="0.60"></path><path d="M411.3 204.43C417.93 202.75 424.3 201.53 430.4 200.77 439.38 200.09 455.78 201.34 463.12 203.25 470.02 205.88 481.9 213.55 486.85 218.49 491.4 224.02 498.87 236.91 501.98 244.16 504.11 249.17 506.13 254.42 508.07 259.88 510.31 265.4 512.61 271.11 515.04 276.97 517.91 282.87 521.04 288.92 524.49 295.08 528.49 301.26 532.88 307.55 537.67 313.91 543.03 320.29 548.78 326.75 554.86 333.25 561.36 339.77 568.07 346.33 574.84 352.92 581.73 359.51 588.45 366.14 594.81 372.77 600.88 379.41 606.28 386.05 610.85 392.68 614.71 399.31 617.47 405.93 618.99 412.5 619.54 419.08 618.78 425.45 616.76 431.61 613.86 437.77 609.87 443.7 604.94 449.4 599.44 455.08 593.28 460.52 586.62 465.69 579.79 470.84 572.74 475.72 565.63 480.31 558.71 484.88 551.93 489.16 545.38 493.13 539.25 497.07 533.45 500.72 528.01 504.05 520.78 508.88 508.66 517.05 503.51 520.44 494.82 526.37 481.98 533.9 477.18 536.18 472.15 538.73 460.49 544.17 453.81 547.17 449.21 549.49 444.28 551.87 439.01 554.3 433.72 557.05 428.1 559.83 422.18 562.64 416.25 565.71 410.02 568.76 403.51 571.75 397 574.91 390.38 577.86 383.68 580.54 376.98 583.29 370.22 585.69 363.42 587.72 356.63 589.68 349.82 591.21 343.01 592.26 336.24 593.17 329.48 593.57 322.78 593.45 316.13 593.13 309.56 592.27 303.11 590.89 296.74 589.28 290.51 587.16 284.48 584.54 278.58 581.7 272.91 578.4 267.52 574.66 262.29 570.74 257.39 566.41 252.84 561.73 248.5 556.9 244.56 551.75 241.04 546.32 237.75 540.78 234.9 535.01 232.5 529.03 230.31 522.99 228.56 516.78 227.26 510.44 226.09 504.06 225.31 497.58 224.91 491.02 224.53 484.44 224.45 477.8 224.63 471.14 224.7 464.47 224.93 457.78 225.3 451.1 225.42 444.42 225.59 437.75 225.78 431.1 225.63 424.46 225.44 417.85 225.23 411.29 224.65 404.72 224.07 398.36 223.51 392.19 222.3 383.04 220.36 365.72 219.9 357.53 219.77 349.5 221.7 334.32 223.9 327.14 226.91 320.06 235.71 306.57 241.44 300.13 245.64 295.8 250.24 291.59 255.21 287.5 260.37 283.31 265.84 279.23 271.58 275.26 277.47 271.17 283.58 267.17 289.86 263.29 296.24 259.27 302.76 255.36 309.38 251.56 316.05 247.64 322.8 243.83 329.6 240.15 336.42 236.38 343.27 232.75 350.13 229.3 357 225.78 363.88 222.46 370.72 219.37 377.57 216.26 384.4 213.41 391.17 210.87 397.94 208.37 404.66 206.21 411.29 204.43" stroke-dasharray="8 8" transform="rotate(36.36, 400, 400)" opacity="0.42"></path><path d="M405.11 215.23C414.2 213.02 431.02 210.93 438.69 211.07 448.65 212.01 457.35 214.7 464.73 218.97 472.03 223.85 478.11 230.23 483.1 237.86 488.39 245.94 493.11 255.12 497.64 265.16 503.33 275.45 509.64 286.45 516.92 297.95 526.1 309.55 536.59 321.57 548.14 333.8 560.95 346.07 573.78 358.53 585.58 371 591.09 377.24 595.97 383.48 600.07 389.7 603.54 395.92 606.03 402.12 607.41 408.27 607.95 414.42 607.31 420.38 605.56 426.12 603.03 431.86 599.52 437.38 595.14 442.67 584.89 453.21 572.52 462.81 559.18 471.35 546.21 479.81 533.67 487.21 522.09 493.5 512.14 499.77 503.26 505.02 495.28 509.3 488.63 513.78 482.25 517.53 475.75 520.67 469.81 524.41 463.17 527.88 455.62 531.2 448.14 535.5 439.52 539.91 429.73 544.41 424.82 547.07 419.62 549.74 414.14 552.41 408.64 555.31 402.88 558.17 396.85 560.94 390.82 563.88 384.68 566.6 378.46 569.08 372.26 571.61 365.99 573.83 359.69 575.71 347.15 579.32 334.57 581.22 322.23 581.34 310.14 580.8 298.47 578.31 287.56 574.01 277.16 568.97 267.78 562.24 259.74 554.09 252.44 545.39 246.65 535.51 242.53 524.75 239.05 513.72 237.07 502.02 236.5 489.91 235.91 477.73 236.17 465.27 237.03 452.74 237.12 446.47 237.25 440.2 237.4 433.94 237.23 427.68 237.03 421.44 236.81 415.22 236.25 409.01 235.69 402.97 235.15 397.11 234.35 391.25 233.64 385.56 233.05 380.05 231.48 369 230.93 358.61 231.64 348.91 232.72 339.07 235.52 329.82 240.04 321.16 245.39 312.25 252.48 303.81 261.02 295.86 270.3 287.53 280.78 279.57 292.11 272.04 303.85 264.09 316.17 256.53 328.77 249.5 341.54 242.14 354.44 235.4 367.24 229.51 373.66 226.54 380.05 223.83 386.36 221.4 392.69 219.01 398.95 216.94 405.1 215.23" stroke-dasharray="9 15" transform="rotate(40.400000000000006, 400, 400)" opacity="0.89"></path><path d="M398.46 226.03C409.81 223.03 420.16 221.64 429.41 221.82 438.61 222.54 446.7 224.86 453.67 228.66 460.67 233 466.72 238.72 471.99 245.63 477.67 252.96 483.05 261.34 488.45 270.55 494.96 280.01 502.1 290.18 510.11 300.83 519.68 311.62 530.24 322.81 541.51 334.22 553.63 345.69 565.52 357.33 576.24 368.98 585.8 380.65 592.63 392.3 595.83 403.76 596.13 415.21 592.38 425.9 585.22 435.72 576.13 445.51 564.94 454.41 552.64 462.34 540.41 470.23 528.27 477.17 516.74 483.12 506.44 489.11 496.98 494.21 488.32 498.48 480.84 502.98 473.71 506.86 466.66 510.22 460.21 514.13 453.33 517.81 445.82 521.33 438.46 525.71 430.2 530.12 421 534.54 411.79 539.88 401.59 545.15 390.46 550.14 379.33 555.68 367.86 560.27 356.3 563.73 344.84 567.09 333.4 568.92 322.26 569.16 311.38 568.88 300.99 566.86 291.4 563.2 282.27 558.93 274.16 553.09 267.34 545.92 261.13 538.28 256.3 529.48 252.99 519.81 250.13 509.87 248.58 499.23 248.25 488.14 247.77 476.96 248.02 465.44 248.79 453.78 248.63 442.11 248.52 430.34 248.39 418.64 247.01 406.93 245.76 395.8 244.81 385.32 243.27 374.79 242.62 364.84 243.05 355.49 243.72 346.01 245.91 337.05 249.63 328.6 254.03 319.93 260.03 311.68 267.4 303.86 275.46 295.73 284.69 287.94 294.8 280.58 305.34 272.86 316.51 265.53 328.02 258.73 339.74 251.68 351.64 245.24 363.46 239.62 375.36 233.99 387.1 229.38 398.45 226.04" stroke-dasharray="17 7" transform="rotate(44.44, 400, 400)" opacity="0.82"></path><path d="M391.95 236.84C402.38 233.96 411.92 232.56 420.52 232.61 429.09 233.13 436.75 235.11 443.52 238.45 450.39 242.26 456.57 247.35 462.22 253.56 468.35 260.14 474.37 267.72 480.54 276.1 487.71 284.72 495.48 294.03 503.96 303.82 513.67 313.75 524.09 324.08 534.9 334.63 546.23 345.25 557.13 356.05 566.79 366.85 575.33 377.69 581.4 388.49 584.25 399.11 584.61 409.73 581.41 419.63 575.16 428.73 567.17 437.8 557.17 446.06 545.97 453.45 534.61 460.83 523.06 467.37 511.81 473.04 501.45 478.78 491.7 483.77 482.59 488.04 474.47 492.55 466.73 496.54 459.18 500.09 452.22 504.14 445.04 507.97 437.47 511.62 430.11 516.02 422.09 520.4 413.37 524.7 404.66 529.77 395.16 534.72 384.91 539.34 374.66 544.42 364.2 548.62 353.73 551.77 343.36 554.88 333.1 556.62 323.21 556.95 313.56 556.87 304.46 555.24 296.16 552.15 288.27 548.55 281.37 543.52 275.66 537.26 270.44 530.59 266.48 522.83 263.84 514.19 261.5 505.32 260.28 495.73 260.1 485.65 259.7 475.46 259.9 464.89 260.54 454.12 260.32 443.33 260.14 432.37 259.98 421.4 258.66 410.43 257.49 399.94 256.61 389.99 255.13 380 254.42 370.5 254.65 361.51 254.99 352.42 256.65 343.76 259.66 335.56 263.2 327.16 268.19 319.13 274.45 311.5 281.3 303.61 289.29 296.04 298.16 288.88 307.44 281.44 317.39 274.39 327.74 267.87 338.31 261.14 349.1 255.02 359.89 249.7 370.77 244.38 381.53 240.02 391.95 236.84" stroke-dasharray="16 10" transform="rotate(48.48, 400, 400)" opacity="0.85"></path><path d="M386.15 247.64C395.7 244.9 404.52 243.51 412.57 243.45 420.63 243.78 427.99 245.44 434.68 248.34 441.52 251.66 447.9 256.15 453.97 261.67 460.51 267.53 467.09 274.32 473.87 281.86 481.51 289.64 489.67 298.07 498.37 306.98 508 316.03 518.07 325.48 528.26 335.15 538.72 344.9 548.6 354.83 557.22 364.77 564.8 374.75 570.15 384.71 572.67 394.5 573.08 404.29 570.38 413.42 564.98 421.83 558.04 430.23 549.19 437.9 539.11 444.81 528.73 451.71 517.93 457.89 507.19 463.33 497.03 468.85 487.24 473.73 477.95 478 469.44 482.52 461.26 486.6 453.35 490.28 445.95 494.41 438.5 498.34 430.86 502.07 423.44 506.44 415.59 510.73 407.26 514.88 398.97 519.68 390.1 524.29 380.68 528.53 371.26 533.18 361.78 536.99 352.4 539.85 343.1 542.69 334.01 544.32 325.36 544.7 316.91 544.77 309.04 543.47 301.97 540.86 295.24 537.85 289.44 533.56 284.73 528.12 280.39 522.34 277.15 515.54 275.06 507.9 273.13 500.04 272.16 491.47 272.07 482.37 271.68 473.18 271.8 463.56 272.31 453.67 272 443.77 271.76 433.64 271.56 423.42 270.32 413.2 269.25 403.37 268.44 393.97 267.05 384.55 266.33 375.52 266.41 366.93 266.5 358.25 267.73 349.93 270.13 342.01 272.93 333.92 277 326.16 282.24 318.77 287.96 311.17 294.75 303.87 302.4 296.97 310.41 289.85 319.12 283.12 328.28 276.9 337.64 270.54 347.3 264.76 357.03 259.74 366.83 254.75 376.6 250.65 386.15 247.64" stroke-dasharray="7 18" transform="rotate(52.52, 400, 400)" opacity="0.74"></path><path d="M381.56 258.44C390.27 255.85 398.45 254.49 406.05 254.32 413.68 254.48 420.81 255.86 427.48 258.35 434.32 261.19 440.9 265.11 447.33 269.97 454.19 275.12 461.17 281.14 468.37 287.86 476.26 294.8 484.56 302.37 493.22 310.39 502.54 318.55 512.09 327.1 521.54 335.89 531.07 344.75 539.91 353.79 547.53 362.87 554.2 371.98 558.88 381.09 561.08 390.07 561.53 399.05 559.28 407.45 554.66 415.21 548.71 422.96 540.98 430.08 532.04 436.53 522.7 443 512.79 448.85 502.73 454.07 493.01 459.39 483.46 464.16 474.24 468.43 465.59 472.92 457.21 477.03 449.1 480.8 441.43 484.96 433.8 488.92 426.13 492.67 418.67 496.95 410.98 501.11 403.01 505.08 395.08 509.58 386.78 513.85 378.15 517.73 369.51 521.95 360.95 525.39 352.62 527.95 344.34 530.53 336.37 532.04 328.89 532.43 321.56 532.61 314.84 531.58 308.9 529.38 303.2 526.88 298.37 523.23 294.52 518.54 290.91 513.58 288.26 507.66 286.6 500.94 284.99 494.04 284.17 486.44 284.09 478.3 283.68 470.07 283.7 461.39 284.06 452.39 283.67 443.37 283.37 434.08 283.14 424.63 281.99 415.18 281.02 406.02 280.3 397.21 279.02 388.37 278.33 379.85 278.32 371.68 278.24 363.45 279.14 355.51 281.03 347.92 283.19 340.2 286.47 332.77 290.79 325.67 295.48 318.4 301.16 311.43 307.66 304.85 314.46 298.09 321.96 291.71 329.94 285.84 338.1 279.87 346.62 274.46 355.3 269.76 364.04 265.1 372.85 261.27 381.56 258.44" stroke-dasharray="1 3" transform="rotate(56.56, 400, 400)" opacity="0.70"></path><path d="M378.59 269.25C386.52 266.81 394.1 265.48 401.29 265.23 408.52 265.25 415.45 266.36 422.1 268.47 428.92 270.88 435.63 274.25 442.29 278.48 449.32 282.96 456.51 288.23 463.89 294.16 471.79 300.28 479.99 306.99 488.38 314.14 497.21 321.41 506.08 329.06 514.7 336.96 523.25 344.92 531.07 353.08 537.72 361.3 543.53 369.54 547.59 377.81 549.5 385.99 549.97 394.17 548.12 401.85 544.22 408.98 539.18 416.11 532.53 422.71 524.71 428.74 516.45 434.79 507.52 440.33 498.3 445.33 489.22 450.44 480.14 455.09 471.23 459.31 462.71 463.74 454.39 467.85 446.29 471.64 438.54 475.77 430.87 479.7 423.28 483.41 415.86 487.55 408.35 491.53 400.75 495.29 393.19 499.48 385.43 503.4 377.53 506.93 369.62 510.73 361.94 513.81 354.58 516.09 347.25 518.4 340.31 519.77 333.9 520.16 324.74 519.99 310.13 514.12 304.97 508.56 301.96 504.32 299.77 499.21 298.41 493.35 297.01 487.34 296.29 480.66 296.17 473.44 295.7 466.14 295.6 458.37 295.8 450.25 295.34 442.11 294.98 433.66 294.72 424.99 293.66 416.32 292.79 407.85 292.17 399.65 291.04 391.43 290.41 383.45 290.37 375.76 290.19 368.02 290.83 360.52 292.33 353.31 293.98 346.01 296.6 338.95 300.12 332.21 303.91 325.33 308.59 318.74 314.04 312.51 319.72 306.17 326.08 300.19 332.96 294.69 339.97 289.13 347.39 284.1 355.06 279.75 362.78 275.44 370.66 271.88 378.59 269.25" stroke-dasharray="11 0" transform="rotate(60.599999999999994, 400, 400)" opacity="0.78"></path><path d="M377.5 280.05C384.68 277.78 391.7 276.5 398.5 276.18 405.33 276.09 412.03 276.95 418.59 278.71 425.31 280.71 432.02 283.58 438.75 287.21 445.77 291.05 452.94 295.62 460.26 300.78 467.94 306.11 475.81 311.98 483.73 318.27 491.91 324.67 499.98 331.44 507.69 338.46 515.24 345.53 522.07 352.81 527.79 360.18 532.79 367.56 536.27 375.01 537.92 382.4 538.4 389.79 536.91 396.78 533.66 403.3 529.45 409.83 523.82 415.91 517.09 421.53 509.92 427.17 502.03 432.39 493.76 437.17 485.49 442.05 477.08 446.55 468.71 450.69 460.58 455.01 452.54 459.05 444.68 462.8 437.07 466.84 429.55 470.67 422.16 474.28 414.92 478.23 407.68 482 400.47 485.52 393.31 489.37 386.1 492.95 378.89 496.12 371.67 499.52 364.79 502.25 358.31 504.26 348.84 506.92 332.53 507.83 325.98 505.97 320.26 502.95 312.51 492.44 310.42 485.18 309.15 479.98 308.44 474.16 308.24 467.81 307.7 461.4 307.47 454.51 307.52 447.25 306.99 439.97 306.58 432.36 306.3 424.48 305.34 416.61 304.58 408.85 304.06 401.3 303.08 393.72 302.54 386.32 302.5 379.16 302.3 371.95 302.78 364.93 303.98 358.17 305.24 351.33 307.31 344.72 310.18 338.38 313.21 331.96 317.04 325.8 321.57 319.98 326.26 314.09 331.59 308.54 337.45 303.46 343.41 298.33 349.81 293.71 356.54 289.71 363.29 285.75 370.31 282.49 377.5 280.05" stroke-dasharray="17 10" transform="rotate(64.64, 400, 400)" opacity="0.39"></path><path d="M378.38 290.86C384.86 288.76 391.31 287.55 397.69 287.18 404.1 286.98 410.5 287.64 416.86 289.08 423.35 290.71 429.9 293.11 436.5 296.18 443.31 299.43 450.25 303.32 457.27 307.76 464.52 312.32 471.86 317.39 479.13 322.86 486.52 328.41 493.71 334.32 500.47 340.48 507.03 346.68 512.89 353.09 517.74 359.62 521.99 366.16 524.94 372.79 526.34 379.41 526.82 386.04 525.64 392.33 522.97 398.26 519.53 404.19 514.84 409.77 509.16 414.97 503.06 420.2 496.25 425.09 488.99 429.62 481.65 434.23 474.07 438.54 466.43 442.54 458.89 446.7 451.37 450.61 443.96 454.27 436.71 458.15 429.54 461.83 422.51 465.28 415.59 469 408.74 472.51 401.99 475.76 395.29 479.27 388.63 482.49 382.09 485.32 375.55 488.33 369.41 490.72 363.72 492.47 355.43 494.79 341.45 495.65 335.92 494.09 331.05 491.58 324.41 482.69 322.55 476.47 320.98 469.51 319.49 452.86 319.22 443.42 318.62 436.98 318.17 430.2 317.88 423.12 317.01 416.05 316.37 409.04 315.96 402.15 315.14 395.26 314.71 388.48 314.72 381.89 314.53 375.26 314.92 368.79 315.92 362.53 316.9 356.22 318.57 350.1 320.91 344.23 323.33 338.31 326.45 332.63 330.2 327.27 334.04 321.86 338.49 316.79 343.45 312.14 348.47 307.48 353.95 303.27 359.81 299.64 365.68 296.05 371.9 293.09 378.38 290.86" stroke-dasharray="17 10" transform="rotate(68.68, 400, 400)" opacity="0.69"></path><path d="M381.16 301.66C392.76 297.98 404.72 297.41 416.69 299.57 429.02 302.33 441.83 307.7 454.69 315.1 468.07 322.92 481.28 332.47 493.01 343.08 503.9 353.84 511.72 365.4 514.76 377.14 514.94 388.87 509.86 399.63 500.9 409.14 490.43 418.77 477.67 427.4 464.13 434.89 450.68 442.88 437.05 450.13 423.97 456.39 411.17 463.46 398.64 469.71 386.87 474.51 375.1 479.89 365.06 482.88 357.01 483.44 348.97 483.86 342.97 481.53 339.18 476.7 335.14 471.53 332.89 463.96 332.29 454.47 330.53 444.83 329.58 433.5 329.46 420.96 327.48 408.43 326.59 395.92 326.97 383.98 326.57 371.98 328.3 360.4 332.18 349.77 336.15 338.99 342.49 329.11 350.84 320.76 359.31 312.41 369.55 305.78 381.16 301.66" stroke-dasharray="16 14" transform="rotate(72.72, 400, 400)" opacity="0.89"></path><path d="M385.59 312.46C395.85 309.15 406.71 308.5 417.74 310.19 429 312.32 440.7 316.7 452.27 322.85 464.05 329.31 475.43 337.32 485.27 346.34 494.32 355.47 500.72 365.41 503.18 375.66 503.49 385.9 499.51 395.46 492.28 404.05 483.8 412.76 473.15 420.71 461.57 427.71 449.87 435.09 437.78 441.81 426.08 447.6 414.52 453.98 403.25 459.53 392.8 463.71 382.35 468.32 373.59 470.83 366.65 471.26 357.04 470.67 346.19 458.16 344.2 446.91 342.33 438.74 341.26 429 341.04 418.08 339.35 407.16 338.72 396.13 339.22 385.51 339.01 374.86 340.55 364.54 343.87 355.04 347.12 345.47 352.38 336.69 359.43 329.3 366.52 321.95 375.32 316.12 385.59 312.46" stroke-dasharray="10 6" transform="rotate(76.76, 400, 400)" opacity="0.25"></path><path d="M391.28 323.27C400.2 320.35 409.79 319.66 419.6 320.94 429.53 322.53 439.78 326.01 449.77 331 459.78 336.21 469.24 342.78 477.24 350.29 484.55 357.87 489.66 366.25 491.6 375.02 491.99 383.79 488.97 392.12 483.3 399.75 476.66 407.45 468.08 414.6 458.53 420.98 448.76 427.63 438.46 433.7 428.35 438.91 418.3 444.53 408.46 449.35 399.36 452.91 390.26 456.78 382.66 458.84 376.66 459.15 368.25 458.63 358.21 448.29 355.97 438.91 354.06 432.09 352.91 423.88 352.62 414.56 351.21 405.25 350.82 395.75 351.45 386.54 351.45 377.32 352.9 368.34 355.81 360.07 358.55 351.78 362.96 344.18 368.92 337.8 374.85 331.47 382.35 326.44 391.28 323.27" stroke-dasharray="9 1" transform="rotate(80.80000000000001, 400, 400)" opacity="0.89"></path><path d="M397.74 334.07C405.29 331.57 413.45 330.9 421.79 331.82 430.18 332.95 438.75 335.63 446.97 339.56 455.1 343.64 462.65 348.87 468.9 354.95 474.6 361.07 478.54 367.93 480.02 375.25 480.45 382.56 478.24 389.63 473.97 396.19 468.98 402.82 462.35 409.06 454.81 414.67 447.03 420.47 438.66 425.77 430.3 430.3 421.94 435.09 413.68 439.16 405.98 442.1 395.04 446.08 379.29 446.62 374.32 443.17 369.98 438.2 365.12 421.63 364.21 410.55 363.07 402.83 362.89 394.9 363.6 387.16 363.83 379.43 365.24 371.88 367.81 364.92 370.19 357.95 373.92 351.59 378.93 346.24 383.89 340.95 390.18 336.75 397.74 334.07" stroke-dasharray="3 4" transform="rotate(84.84, 400, 400)" opacity="0.85"></path><path d="M404.4 344.87C416.67 340.91 430.84 342.65 443.64 348.52 456.02 354.73 465.66 364.61 468.44 376.33 468.6 388.05 461.32 399.44 450.26 408.76 438.43 418.52 424.57 426.78 412.07 431.3 399.56 436.36 390.52 436.32 385.38 431.92 379.37 427.42 375.92 418.43 375.79 406.16 373.54 393.9 374.97 380.82 379.68 369.62 383.73 358.47 392.11 349.31 404.4 344.87" stroke-dasharray="10 16" transform="rotate(88.88, 400, 400)" opacity="0.74"></path><path d="M410.67 355.68C420.01 352.6 430.47 353.7 439.61 357.88 448.41 362.23 455.05 369.42 456.86 378.24 457.22 387.05 452.41 395.87 444.76 403.19 436.6 410.75 426.58 417.1 417.1 420.5 407.61 424.2 400.34 424.06 395.83 420.72 390.77 417.36 387.68 410.7 387.37 401.57 385.82 392.43 387.29 382.64 391.22 374.23 394.7 365.89 401.32 359.03 410.67 355.68" stroke-dasharray="18 17" transform="rotate(92.92, 400, 400)" opacity="0.80"></path><path d="M416 366.48C428.62 362.38 442.62 369.09 445.27 380.9 445.43 392.7 433.38 405.31 420.63 409.69 407.87 414.6 399.09 409.01 398.95 396.91 396.56 384.81 403.38 371.07 416 366.48" stroke-dasharray="3 7" transform="rotate(96.96, 400, 400)" opacity="0.09"></path></g></svg>